<?xml version="1.0" standalone="no"?>
<!DOCTYPE svg PUBLIC "-//W3C//DTD SVG 20010904//EN"
 "http://www.w3.org/TR/2001/REC-SVG-20010904/DTD/svg10.dtd">
<svg version="1.0" xmlns="http://www.w3.org/2000/svg"
 width="2000.000000pt" height="2000.000000pt" viewBox="0 0 2000.000000 2000.000000"
 preserveAspectRatio="xMidYMid meet">

<g transform="translate(0.000000,2000.000000) scale(0.100000,-0.100000)"
fill="#000000" stroke="none">
<path d="M10690 15233 c-394 -42 -746 -291 -915 -648 -126 -266 -147 -575 -58
-850 28 -88 105 -236 163 -314 166 -224 385 -370 663 -444 70 -18 108 -21 267
-21 159 0 197 3 267 21 431 115 727 414 844 853 29 108 37 335 15 457 -65 375
-320 698 -670 852 -180 79 -392 114 -576 94z m305 -239 c334 -64 596 -309 701
-659 25 -81 27 -105 27 -245 0 -175 -16 -258 -77 -387 -122 -257 -334 -429
-629 -511 -97 -27 -337 -24 -440 6 -167 48 -292 117 -405 226 -240 229 -340
584 -256 909 51 198 201 407 375 523 211 140 448 186 704 138z"/>
<path d="M10753 14144 c-23 -23 -25 -31 -20 -76 l6 -50 -109 -164 c-61 -90
-110 -170 -110 -179 0 -40 34 -1 140 160 97 148 119 175 140 175 14 0 34 3 45
5 15 4 70 -36 219 -160 110 -91 204 -164 210 -162 5 2 11 7 13 13 2 5 -89 85
-201 178 -193 159 -205 170 -199 197 4 22 -1 34 -25 59 -38 37 -74 39 -109 4z"/>
<path d="M4920 14313 c-7 -102 -16 -200 -20 -217 -6 -29 -7 -27 -16 24 l-8 55
-7 -90 c-4 -49 -7 -134 -8 -187 -1 -54 -5 -98 -10 -98 -4 0 -43 90 -86 200
-43 110 -80 198 -82 197 -2 -2 26 -181 61 -398 35 -217 62 -396 61 -397 -2 -2
-37 47 -77 110 l-73 113 -3 -59 -3 -59 -30 29 -30 29 34 -95 c19 -52 40 -108
46 -123 17 -44 15 -46 -46 -49 -54 -3 -58 -5 -61 -28 -1 -14 31 -234 71 -490
l73 -465 -371 -5 -370 -5 -5 -1294 -5 -1295 -28 42 -27 42 -67 0 -66 0 -501
-347 c-276 -191 -518 -360 -538 -375 l-38 -29 54 -77 c215 -310 364 -805 405
-1347 12 -156 13 -238 12 -865 -2 -722 31 -1207 115 -1699 50 -289 122 -541
155 -541 18 0 18 1 0 43 -67 156 -143 537 -185 922 -49 450 -59 678 -61 1440
-1 582 -4 722 -18 831 -65 520 -185 902 -373 1192 l-54 82 44 0 c39 0 48 -4
73 -37 174 -224 331 -669 392 -1113 38 -275 44 -419 37 -890 -9 -611 11 -1097
65 -1560 40 -342 107 -681 166 -841 l25 -69 608 0 608 0 6 63 c9 107 17 316
26 762 11 492 29 775 96 1440 81 812 166 1416 239 1690 168 633 530 1234 944
1568 131 106 305 217 417 266 l44 20 72 -107 c39 -59 83 -121 98 -138 74 -86
367 -554 515 -824 68 -125 68 -125 77 -230 15 -179 -2 -402 -67 -850 -68 -472
-90 -746 -83 -1058 4 -178 3 -204 -11 -211 -14 -8 -44 81 -213 623 -128 407
-226 743 -277 946 -86 341 -176 659 -212 754 -62 160 -254 275 -459 276 -137
0 -251 -49 -350 -149 -127 -129 -197 -292 -221 -511 -21 -199 12 -391 155
-890 94 -329 297 -969 332 -1045 7 -16 69 -192 137 -390 160 -461 314 -890
338 -936 75 -148 237 -179 389 -74 36 24 147 108 248 186 101 77 185 139 188
137 2 -3 1 -54 -4 -115 l-7 -111 92 -258 c51 -143 93 -266 93 -274 0 -27 -84
-133 -161 -204 -136 -124 -328 -244 -508 -317 l-84 -34 1619 -5 1619 -5 230
-142 c126 -79 233 -139 237 -135 5 5 -296 679 -668 1498 -372 819 -679 1496
-681 1505 -3 12 20 36 76 80 44 35 80 69 80 76 1 7 -10 38 -24 69 -14 32 -24
58 -23 59 24 22 242 155 249 153 5 -2 264 -486 574 -1075 431 -819 565 -1081
565 -1107 0 -19 4 -37 9 -40 4 -3 482 91 1062 208 l1054 213 21 74 c20 70 21
75 4 94 -9 11 -407 478 -885 1038 -803 942 -869 1018 -894 1013 -203 -38 -223
-39 -373 -12 -79 14 -181 32 -227 39 -82 14 -101 25 -101 58 0 14 14 18 68 23
225 21 431 26 1167 26 l821 0 299 -236 c165 -130 322 -254 348 -276 l48 -40
-3 -76 -3 -77 -62 -41 c-69 -47 -127 -63 -418 -116 -93 -17 -174 -34 -179 -39
-5 -4 124 -154 287 -332 162 -178 306 -337 320 -352 l24 -29 114 13 c188 21
465 61 560 80 129 27 154 54 193 211 l21 88 340 -269 340 -269 140 3 140 2 5
190 5 190 1505 -992 c827 -546 1508 -993 1513 -993 5 0 7 5 5 12 -3 7 -684
460 -1514 1008 l-1509 995 -5 2485 -5 2485 -215 6 c-118 4 -772 48 -1454 98
-681 51 -1245 90 -1252 87 -12 -5 -14 -282 -14 -1743 l0 -1738 190 -149 c105
-82 190 -151 190 -153 0 -1 -285 -3 -634 -3 l-634 0 33 33 c60 60 58 127 -5
160 -38 20 -33 20 -570 -3 -182 -7 -196 -7 -214 10 -19 18 -18 19 20 35 21 9
170 64 329 122 160 58 307 114 327 126 44 24 63 64 55 113 -7 44 -23 63 -64
81 -68 28 -94 21 -664 -194 l-550 -206 -22 22 -22 23 87 81 c47 45 93 96 102
114 22 45 20 147 -4 226 -34 108 -66 115 -118 22 -51 -90 -129 -183 -313 -370
-92 -93 -177 -189 -188 -211 -12 -23 -28 -73 -35 -110 l-12 -69 -282 -3 -282
-2 0 -144 0 -144 59 -155 59 -156 -547 -280 c-433 -222 -547 -277 -548 -263
-2 14 -71 1288 -75 1377 -1 17 13 86 31 155 17 69 36 175 43 235 l11 111 351
209 c497 296 1021 613 1300 787 303 189 395 240 801 446 380 192 413 216 436
317 16 74 3 144 -45 228 -41 72 -75 114 -250 309 -126 139 -664 765 -879 1020
l-106 127 20 47 c30 66 24 169 -13 244 -34 70 -101 139 -175 182 l-57 34 -12
97 c-31 241 -98 346 -196 304 -18 -8 -44 -26 -57 -41 -14 -14 -28 -26 -32 -26
-3 0 -33 16 -65 35 -93 56 -147 47 -189 -34 -8 -17 -19 -31 -23 -31 -4 0 -29
11 -56 25 -27 14 -62 25 -76 25 -37 0 -76 -33 -92 -76 -12 -34 -14 -35 -50
-29 -34 6 -42 3 -72 -27 -38 -38 -70 -128 -82 -227 -3 -34 -10 -61 -13 -61 -4
0 -25 -15 -47 -34 -37 -31 -45 -34 -134 -40 -215 -16 -406 -59 -559 -125 -174
-75 -284 -168 -346 -294 l-38 -77 -714 0 -715 0 6 38 c96 591 144 937 133 944
-6 4 -47 8 -89 8 -43 0 -78 1 -78 3 0 1 23 66 50 145 28 79 50 145 50 148 0 2
-25 -14 -56 -37 -30 -22 -57 -39 -59 -37 -2 2 13 31 33 63 58 92 58 92 41 79
-8 -6 -42 -32 -77 -58 -34 -26 -66 -46 -70 -44 -6 2 45 434 102 853 3 22 -48
-117 -114 -309 -66 -192 -122 -351 -125 -354 -3 -3 -3 8 -1 24 3 16 7 83 10
149 l5 120 -42 -114 c-37 -101 -43 -110 -49 -85 -4 16 -19 169 -34 339 -14
171 -27 311 -28 312 -2 2 -9 -81 -16 -184z m3596 -1014 c58 -35 60 -42 21
-106 -19 -32 -47 -82 -61 -110 -22 -45 -31 -53 -54 -53 -15 0 -51 -3 -80 -6
l-52 -7 6 34 c12 69 46 175 71 217 37 65 79 73 149 31z m269 -7 c29 -44 63
-168 72 -264 l6 -68 -59 20 c-64 23 -217 50 -276 50 -48 0 -49 14 -7 89 49 87
108 159 153 186 58 35 81 32 111 -13z m-529 -38 c53 -25 58 -36 40 -91 -9 -26
-19 -70 -22 -96 -8 -54 -7 -53 -96 -72 -75 -15 -78 -13 -78 66 0 175 53 242
156 193z m-181 -186 l1 -98 -70 -27 c-39 -16 -75 -30 -80 -32 -14 -6 4 107 26
166 22 60 60 95 97 91 26 -3 26 -4 26 -100z m839 -333 c34 -23 54 -56 71 -120
29 -113 -15 -228 -103 -267 -50 -23 -43 -23 -687 -2 -325 11 -543 -18 -724
-95 -155 -66 -337 -190 -482 -328 -42 -40 -81 -73 -87 -73 -77 0 174 229 393
358 165 97 339 153 540 173 116 11 384 9 810 -7 199 -8 234 0 273 58 36 55 43
165 14 217 -23 43 -76 72 -122 69 -33 -3 -35 -5 -34 -38 0 -19 4 -47 8 -62 7
-24 5 -28 -12 -28 -24 0 -42 44 -42 100 0 39 20 65 55 72 30 6 101 -9 129 -27z
m302 -452 c316 -373 768 -898 895 -1038 169 -188 190 -215 230 -296 51 -102
51 -201 2 -260 -37 -44 -68 -62 -370 -214 -373 -187 -504 -260 -838 -468 -321
-199 -1616 -980 -1619 -975 -1 2 -9 48 -18 103 l-17 99 98 126 c137 175 130
160 97 211 -57 86 -87 142 -79 149 19 16 409 317 419 323 6 4 90 14 185 22
192 18 237 23 449 55 181 26 259 46 287 72 29 27 60 163 73 322 5 71 10 137
10 146 0 13 63 43 261 124 l260 107 55 -21 c201 -75 494 -135 494 -101 0 13
-26 21 -73 22 -34 0 -99 15 -232 52 -5 1 -14 5 -20 8 -5 4 -54 21 -107 38
l-96 32 -7 39 c-4 23 -110 231 -257 502 -248 458 -251 464 -279 583 -16 66
-39 148 -50 183 -12 35 -19 64 -18 66 2 1 24 14 49 28 25 15 58 40 74 57 17
17 31 31 32 31 1 0 51 -57 110 -127z m-276 -70 c19 -66 250 -1035 250 -1053 0
-5 -42 -33 -94 -62 l-94 -53 -6 -59 c-3 -32 -6 -113 -6 -180 0 -133 -15 -365
-31 -466 -15 -99 -26 -127 -57 -138 -72 -27 -422 -76 -746 -103 l-149 -12
-211 -165 c-116 -91 -216 -165 -223 -166 -7 -1 -129 177 -272 394 l-260 394
34 46 c149 204 193 304 176 407 -5 32 -7 60 -5 62 3 3 16 1 30 -5 22 -8 30
-22 50 -92 14 -46 31 -96 38 -110 52 -100 145 -172 222 -172 44 0 142 43 151
67 10 26 -7 26 -60 0 -90 -46 -165 -29 -231 50 -114 137 -161 487 -84 624 24
43 83 79 129 79 46 0 113 -35 144 -76 56 -74 113 -235 140 -398 6 -35 8 -37
22 -23 13 13 14 24 4 82 -7 37 -10 69 -8 71 2 2 48 14 103 27 71 18 100 29
102 41 2 9 -4 19 -12 22 -21 8 -80 91 -94 132 -26 76 20 139 183 252 150 103
181 156 134 225 -12 17 -76 71 -141 121 -111 82 -157 132 -143 154 9 15 105
47 190 64 166 32 604 82 747 85 l57 1 21 -67z m-2197 -6 c-10 -107 26 -265 88
-389 l29 -57 0 -548 -1 -548 -65 -48 c-35 -26 -71 -50 -79 -53 -13 -5 -15 86
-15 740 l0 746 -1285 0 -1285 0 0 -945 0 -945 1010 0 c556 0 1010 -3 1010 -7
-1 -5 -30 -30 -65 -56 -35 -27 -104 -86 -153 -133 l-90 -84 -856 0 -856 0 -2
-252 -3 -252 -62 128 -63 127 0 1320 0 1319 1375 0 1374 0 -6 -63z m-83 -937
l0 -749 -80 -61 c-64 -48 -80 -66 -75 -80 5 -15 -5 -24 -47 -46 -29 -14 -98
-53 -154 -85 l-101 -59 -1019 2 -1019 3 -3 900 c-1 495 0 906 3 913 3 9 263
12 1250 12 l1245 0 0 -750z m6415 660 c676 -49 1254 -92 1283 -96 l52 -5 0
-2656 c0 -1963 -3 -2654 -11 -2651 -6 2 -596 465 -1310 1028 l-1299 1025 0
1722 0 1723 27 0 c15 0 581 -40 1258 -90z m-5097 28 c34 -34 0 -70 -155 -166
-145 -89 -145 -100 0 -61 54 15 82 18 89 11 18 -18 0 -29 -79 -50 -124 -33
-158 -36 -177 -17 -9 9 -16 21 -16 26 0 19 46 56 161 127 64 39 122 78 129 87
11 13 6 15 -37 15 -85 0 -234 -30 -319 -65 -103 -41 -218 -109 -342 -202 -53
-40 -101 -71 -107 -70 -28 9 -7 38 68 93 266 199 466 280 698 283 46 1 80 -4
87 -11z m1326 -576 c175 -323 217 -408 214 -434 -3 -31 -5 -32 -242 -130 -132
-54 -243 -98 -248 -98 -5 0 -7 68 -6 152 l3 152 90 52 c50 29 94 59 99 67 6 9
-17 124 -63 323 -40 170 -74 316 -77 324 -14 42 31 -38 230 -408z m-2230 120
l100 -102 18 -173 c35 -341 36 -321 -11 -412 -43 -85 -138 -226 -157 -232 -6
-2 -26 19 -44 48 -40 62 -59 81 -71 74 -5 -4 -9 191 -9 492 l1 498 37 -45 c20
-25 81 -91 136 -148z m46 -1142 c9 -6 550 -829 550 -837 0 -7 -320 -417 -329
-420 -3 -2 -40 59 -80 135 -129 237 -276 476 -503 816 -184 278 -217 332 -205
343 7 7 92 71 188 142 l174 129 99 -152 c54 -83 102 -153 106 -156z m-1320
-519 c0 -6 -24 -38 -53 -73 -120 -142 -271 -371 -380 -578 l-44 -85 -207 -3
-206 -2 0 -165 0 -165 136 0 c126 0 136 -1 129 -17 -45 -117 -117 -405 -148
-588 l-24 -140 -295 -3 -296 -2 -6 22 c-3 13 -6 52 -6 88 0 80 -24 309 -45
433 -38 222 -81 393 -151 598 l-44 130 0 273 c0 150 3 276 7 279 10 11 1633 8
1633 -2z m-1965 -80 c-6 -5 -235 -165 -509 -356 -454 -315 -502 -346 -535
-343 -33 3 -5 24 473 356 437 302 514 352 544 352 22 0 32 -4 27 -9z m2300
-308 c105 -31 206 -106 245 -183 41 -82 123 -364 253 -875 48 -187 146 -525
227 -780 78 -247 162 -514 186 -593 25 -79 51 -145 58 -148 7 -3 357 171 777
387 419 216 764 388 766 383 2 -7 199 -404 210 -425 2 -3 -53 -50 -123 -105
-70 -54 -381 -302 -693 -549 -561 -447 -1042 -825 -1196 -941 -159 -120 -171
-126 -246 -132 -37 -2 -79 -2 -92 2 -40 10 -86 54 -114 110 -69 136 -642 1799
-746 2166 -20 69 -61 213 -91 320 -76 264 -104 392 -118 540 -37 399 123 734
392 822 68 22 231 22 305 1z m3538 -430 c24 -62 39 -151 32 -196 -6 -37 -19
-54 -113 -144 l-107 -101 23 -25 c55 -59 19 -68 608 154 595 224 630 234 678
186 19 -19 26 -36 26 -66 0 -37 -3 -42 -41 -62 -23 -11 -175 -69 -339 -129
-294 -107 -380 -143 -380 -158 0 -5 13 -21 30 -37 l29 -28 248 9 c136 5 312 9
391 9 157 0 162 -2 162 -62 0 -60 -69 -103 -162 -103 -94 0 -643 -42 -651 -50
-15 -13 3 -99 22 -104 9 -3 99 -19 201 -36 233 -39 421 -79 438 -92 21 -18 14
-67 -14 -95 -24 -24 -30 -25 -97 -19 -71 6 -466 61 -519 72 -65 13 -18 -26
135 -113 89 -50 174 -97 189 -104 38 -17 41 -34 11 -70 -35 -41 -46 -39 -263
53 l-175 75 -220 -29 c-180 -24 -243 -28 -343 -24 l-123 6 -145 -95 -145 -95
-31 67 c-16 38 -45 100 -62 138 l-32 70 23 53 c50 115 91 253 112 377 12 71
30 148 40 170 11 24 67 88 141 160 154 151 307 328 355 411 21 35 41 64 45 64
4 0 15 -17 23 -37z m-2326 -366 c12 -210 12 -220 -35 -946 l-47 -733 -38 -20
c-22 -11 -42 -16 -45 -13 -4 4 -7 145 -6 313 0 351 9 448 85 992 28 200 53
415 56 493 3 75 9 135 12 131 3 -3 11 -101 18 -217z m1685 -462 c-4 -44 -38
-156 -84 -273 l-40 -103 -84 -42 c-46 -22 -85 -39 -87 -37 -8 9 -217 473 -217
482 0 4 116 7 258 6 l257 -3 -3 -30z m2683 -1141 c477 -558 865 -1017 862
-1020 -2 -2 -474 -114 -1048 -248 l-1044 -243 -19 36 c-10 20 -266 505 -567
1078 -302 574 -549 1045 -549 1048 0 3 26 5 57 3 l58 -3 32 -55 c18 -30 36
-60 40 -67 6 -10 23 -9 77 3 39 8 72 16 74 18 2 3 -8 24 -22 49 -31 52 -32 57
-7 57 12 0 29 -17 47 -47 15 -27 28 -49 29 -51 3 -4 235 45 242 51 3 4 -4 22
-16 42 -26 44 -26 45 -1 45 17 0 51 -40 63 -73 1 -4 33 -1 71 7 70 14 102 14
119 -3 8 -8 -109 -41 -147 -41 -9 0 -16 -4 -16 -9 0 -19 42 -81 55 -81 8 0 54
9 104 21 l91 21 -21 29 c-12 17 -19 32 -16 35 8 9 57 -19 62 -36 4 -14 17 -16
70 -14 39 2 74 9 87 19 13 8 31 15 42 15 16 0 17 3 8 12 -7 7 -12 24 -12 40 0
19 -9 34 -31 50 -31 23 -112 128 -104 136 14 14 55 -15 83 -58 36 -57 37 -57
152 -32 53 12 75 21 75 32 0 22 27 30 46 14 13 -12 28 -11 102 4 l86 17 -54
66 c-50 62 -80 83 -160 114 -15 6 -4 11 45 20 36 7 70 13 77 14 6 0 402 -456
878 -1015z m-6736 804 c-10 -68 -19 -129 -19 -135 0 -10 -62 -13 -275 -13
l-275 0 0 135 0 135 293 0 294 0 -18 -122z m4027 -263 c46 -104 84 -190 84
-191 0 -5 -211 -176 -214 -173 -1 2 -13 29 -26 59 -12 30 -58 126 -102 214
-43 87 -78 159 -76 161 13 12 235 124 241 122 4 -1 46 -88 93 -192z m-4059 23
c-4 -29 -18 -146 -31 -260 -47 -386 -123 -1190 -138 -1458 l-3 -45 -112 -3
c-62 -1 -113 1 -113 5 0 4 -9 78 -20 163 -62 486 -108 1041 -117 1398 l-6 252
273 0 273 0 -6 -52z m8280 -502 l352 -364 -47 -11 c-119 -28 -614 -95 -657
-89 -17 2 -112 99 -320 327 -162 179 -292 328 -288 332 5 3 77 19 161 34 234
41 341 70 387 105 22 16 45 29 50 30 6 0 168 -164 362 -364z m-4166 -688 c141
-377 260 -694 263 -705 6 -19 -1 -21 -101 -37 -392 -60 -1114 -284 -1718 -534
l-70 -29 -2 55 c-3 52 101 916 113 944 8 18 1237 998 1248 994 5 -1 125 -311
267 -688z m-4297 -830 c-3 -117 -9 -361 -14 -543 -6 -181 -10 -350 -10 -374 0
-24 -3 -42 -6 -39 -11 11 -174 1087 -174 1148 0 19 6 20 104 20 l105 0 -5
-212z"/>
<path d="M8675 12006 c-59 -26 -91 -86 -101 -189 l-7 -62 34 32 c79 74 220
108 277 66 47 -34 47 -34 42 27 -4 48 -10 62 -32 79 -70 55 -153 73 -213 47z"/>
<path d="M8730 11599 c-15 -27 -14 -139 1 -172 26 -57 59 -13 59 77 0 95 -33
147 -60 95z"/>
<path d="M8466 10810 c-60 -53 -71 -133 -20 -146 54 -14 126 46 140 114 14 67
-58 86 -120 32z"/>
<path d="M4910 11105 l0 -165 505 0 505 0 0 165 0 165 -505 0 -505 0 0 -165z"/>
<path d="M11945 11858 c-3 -7 -4 -670 -3 -1472 l3 -1459 1115 -688 c613 -379
1118 -685 1122 -681 5 5 7 933 6 2063 l-3 2054 -1045 91 c-575 51 -1078 95
-1118 98 -55 5 -73 4 -77 -6z m453 -232 c112 -13 204 -26 205 -28 1 -1 21 -42
44 -90 40 -82 44 -86 80 -92 21 -4 302 -46 625 -95 323 -49 591 -92 597 -96
12 -7 16 -3185 4 -3185 -3 0 -414 232 -913 516 l-907 515 -6 646 c-4 356 -7
938 -7 1295 l0 648 38 -5 c20 -3 128 -16 240 -29z"/>
<path d="M12217 11363 c-4 -3 -7 -506 -7 -1118 l0 -1111 827 -441 c569 -304
830 -438 835 -430 12 19 10 2805 -2 2812 -9 6 -1617 295 -1638 295 -5 0 -12
-3 -15 -7z m585 -1250 c8 -10 45 -67 83 -128 37 -60 70 -112 72 -115 2 -2 41
35 87 84 74 80 84 89 109 82 28 -7 57 -50 57 -84 0 -22 -31 -64 -113 -155
l-57 -65 80 -128 c44 -71 83 -138 86 -149 7 -27 -11 -74 -31 -82 -33 -12 -63
18 -139 142 l-79 127 -79 -86 c-52 -56 -87 -86 -101 -86 -32 0 -67 39 -67 75
0 38 15 60 102 153 l68 72 -66 108 c-37 59 -75 121 -85 137 -21 34 -23 53 -9
89 12 31 58 36 82 9z"/>
<path d="M10858 7802 c-43 -8 -78 -18 -78 -22 0 -3 12 -21 28 -39 l27 -32 75
16 c109 24 105 20 74 60 -14 19 -31 34 -38 34 -6 -1 -46 -8 -88 -17z"/>
<path d="M10610 7750 c-80 -18 -84 -23 -50 -71 l20 -27 82 19 c46 11 93 21
106 24 l23 6 -27 34 c-30 40 -41 41 -154 15z"/>
<path d="M10948 7697 c-49 -11 -88 -23 -88 -26 0 -3 15 -24 33 -45 l34 -39 49
12 c125 31 125 31 114 49 -5 9 -20 29 -32 43 l-23 25 -87 -19z"/>
<path d="M10692 7640 c-40 -9 -75 -20 -78 -23 -3 -3 8 -26 25 -50 l31 -45 97
24 c54 14 102 26 106 27 5 1 -6 21 -22 45 -36 48 -45 50 -159 22z"/>
<path d="M9858 7598 c-54 -11 -98 -23 -98 -27 1 -14 48 -86 56 -85 27 4 229
47 232 50 2 1 -6 20 -18 43 -24 48 -28 49 -172 19z"/>
<path d="M10453 7586 l-92 -21 31 -50 c17 -28 31 -51 32 -52 3 -3 187 45 193
50 6 7 -55 97 -65 96 -4 -1 -48 -11 -99 -23z"/>
<path d="M11035 7576 c-44 -13 -78 -27 -76 -32 12 -30 67 -94 80 -93 9 0 51
10 94 22 l79 22 -42 53 c-23 28 -45 52 -48 51 -4 0 -43 -11 -87 -23z"/>
<path d="M9615 7548 c-27 -6 -51 -12 -53 -13 -3 -3 35 -84 43 -93 6 -7 155 30
155 38 0 5 -9 25 -21 44 -23 40 -34 42 -124 24z"/>
<path d="M10202 7530 c-40 -9 -75 -20 -79 -23 -4 -5 35 -83 52 -105 3 -4 195
45 201 50 2 3 -10 25 -26 51 -34 54 -37 54 -148 27z"/>
<path d="M10788 7513 l-97 -25 37 -51 c20 -29 37 -53 38 -55 2 -3 207 48 212
53 7 6 -72 105 -83 104 -5 0 -54 -12 -107 -26z"/>
<path d="M9946 7474 c-60 -13 -111 -26 -113 -27 -6 -7 59 -117 69 -117 18 0
212 52 220 59 8 7 -43 104 -57 107 -5 1 -59 -9 -119 -22z"/>
<path d="M10550 7453 c-52 -14 -97 -27 -98 -28 -2 -2 12 -28 32 -58 l35 -56
98 26 c54 15 100 28 102 30 4 3 -67 114 -72 112 -1 0 -45 -12 -97 -26z"/>
<path d="M11148 7437 c-42 -12 -80 -25 -83 -29 -8 -8 73 -118 87 -118 20 0
178 44 178 50 0 9 -91 120 -98 119 -4 0 -42 -10 -84 -22z"/>
<path d="M9715 7424 c-94 -23 -91 -17 -55 -82 18 -31 34 -59 36 -61 3 -3 145
29 152 35 5 3 -62 124 -68 123 -3 -1 -32 -8 -65 -15z"/>
<path d="M10300 7389 c-41 -11 -81 -22 -88 -24 -10 -4 -5 -20 18 -63 l31 -58
99 25 c54 15 101 29 105 32 11 11 -56 109 -73 108 -10 0 -51 -10 -92 -20z"/>
<path d="M10895 7372 c-55 -15 -99 -31 -98 -35 0 -5 20 -35 42 -67 l41 -58
106 28 c59 16 109 31 111 34 6 6 -85 126 -95 125 -4 0 -52 -13 -107 -27z"/>
<path d="M10031 7320 c-57 -16 -105 -31 -108 -33 -8 -9 60 -118 71 -114 6 2
59 17 118 32 l108 28 -32 58 c-18 33 -37 59 -43 58 -5 0 -57 -13 -114 -29z"/>
<path d="M10645 7304 c-49 -13 -93 -25 -97 -27 -3 -1 11 -32 33 -68 l40 -66
101 28 c55 15 102 30 105 33 6 6 -75 126 -85 125 -4 0 -47 -11 -97 -25z"/>
<path d="M11268 7277 c-42 -12 -80 -25 -84 -29 -5 -6 36 -70 82 -127 4 -5 167
38 184 49 9 6 -1 24 -36 69 -27 33 -53 61 -59 60 -5 0 -45 -10 -87 -22z"/>
<path d="M9797 7260 c-38 -10 -71 -20 -73 -23 -6 -5 26 -70 48 -100 13 -18 17
-18 78 -2 36 9 71 18 77 20 9 3 3 23 -20 64 -17 34 -34 60 -37 60 -3 0 -36 -9
-73 -19z"/>
<path d="M10373 7233 l-92 -26 26 -46 c14 -25 32 -56 39 -67 l13 -21 108 29
c59 16 108 30 110 31 1 2 -16 31 -37 65 -25 40 -46 62 -57 61 -10 0 -59 -12
-110 -26z"/>
<path d="M11050 7220 c-36 -10 -84 -23 -107 -29 l-43 -12 47 -70 c32 -47 52
-69 62 -66 9 2 62 17 119 32 l102 28 -23 31 c-13 17 -36 48 -51 69 -16 20 -31
37 -35 36 -3 0 -35 -9 -71 -19z"/>
<path d="M10120 7167 c-63 -16 -116 -31 -118 -32 -7 -6 74 -135 85 -135 11 0
131 31 215 56 14 4 12 13 -19 67 -19 34 -37 65 -41 68 -4 4 -59 -7 -122 -24z"/>
<path d="M10741 7135 c-46 -14 -86 -26 -88 -29 -7 -6 68 -127 82 -132 19 -6
210 54 207 65 -1 7 -19 36 -39 66 -41 63 -42 64 -162 30z"/>
<path d="M11392 7111 c-61 -17 -91 -30 -88 -38 3 -6 31 -47 62 -90 32 -43 58
-79 59 -81 2 -1 50 9 108 24 l106 26 -59 78 c-90 115 -79 111 -188 81z"/>
<path d="M9925 7115 c-5 -2 -36 -11 -68 -20 l-58 -17 38 -69 c26 -48 42 -68
52 -64 8 3 43 13 78 21 34 9 63 19 63 23 0 3 -15 33 -33 66 -30 55 -47 70 -72
60z"/>
<path d="M10491 7069 c-57 -15 -106 -30 -108 -33 -3 -3 12 -37 33 -75 27 -49
43 -70 54 -67 8 3 60 17 115 32 55 15 101 28 103 30 4 2 -86 145 -90 143 -2 0
-50 -14 -107 -30z"/>
<path d="M11130 7039 c-57 -17 -106 -32 -108 -34 -3 -3 86 -138 115 -174 6 -8
243 52 243 61 0 14 -122 173 -134 175 -6 1 -58 -12 -116 -28z"/>
<path d="M10203 6992 c-50 -15 -94 -30 -98 -33 -11 -11 66 -139 83 -139 23 0
205 51 216 61 5 4 -7 36 -26 71 -42 76 -47 77 -175 40z"/>
<path d="M10853 6963 c-51 -15 -93 -30 -93 -36 0 -21 96 -166 110 -166 8 0 64
12 123 27 l108 27 -58 85 c-38 55 -65 86 -78 87 -11 1 -62 -10 -112 -24z"/>
<path d="M9973 6927 c-40 -11 -73 -24 -73 -30 0 -22 72 -138 83 -134 7 2 44
12 83 22 l71 18 -41 74 c-23 40 -43 72 -46 72 -3 -1 -38 -11 -77 -22z"/>
<path d="M10586 6890 c-54 -16 -100 -31 -103 -34 -3 -3 16 -44 42 -91 35 -65
51 -85 63 -81 9 3 66 17 125 32 59 15 106 30 105 33 -24 52 -106 171 -118 170
-8 -1 -59 -14 -114 -29z"/>
<path d="M11555 6893 c-49 -14 -92 -26 -93 -28 -4 -4 85 -132 96 -139 9 -5
194 43 205 53 9 9 -91 141 -107 140 -6 0 -51 -12 -101 -26z"/>
<path d="M11273 6822 c-57 -14 -103 -30 -103 -34 0 -5 21 -40 47 -78 32 -49
51 -69 62 -66 9 3 52 14 96 26 44 12 94 26 112 31 l32 10 -51 70 c-36 50 -56
69 -72 68 -11 -1 -67 -13 -123 -27z"/>
<path d="M10303 6811 c-50 -14 -94 -29 -98 -33 -6 -5 65 -141 83 -160 6 -6
228 44 238 55 2 2 -16 41 -41 86 -53 94 -46 92 -182 52z"/>
<path d="M10998 6752 c-53 -15 -99 -30 -103 -34 -4 -4 14 -40 39 -81 l46 -74
116 32 c63 17 115 35 116 41 1 19 -88 144 -102 143 -8 0 -59 -13 -112 -27z"/>
<path d="M10085 6748 c-38 -10 -76 -21 -83 -23 -10 -4 -2 -26 29 -82 23 -43
44 -80 45 -82 3 -3 45 6 136 30 l38 10 -32 57 c-18 31 -39 69 -48 83 l-15 26
-70 -19z"/>
<path d="M11697 6720 c-53 -15 -100 -30 -103 -32 -3 -3 18 -38 47 -77 40 -55
56 -70 70 -66 10 4 57 17 105 30 47 13 88 26 91 29 5 5 -104 148 -110 145 -1
-1 -46 -14 -100 -29z"/>
<path d="M10720 6681 c-58 -15 -110 -29 -117 -32 -7 -3 4 -33 33 -85 l44 -82
107 29 c171 46 159 31 105 122 -26 42 -51 77 -57 76 -5 0 -57 -13 -115 -28z"/>
<path d="M11416 6644 c-65 -18 -120 -35 -123 -37 -3 -4 37 -66 93 -145 2 -4
166 39 231 59 l33 10 -43 60 c-65 93 -55 90 -191 53z"/>
<path d="M10430 6607 c-63 -17 -116 -31 -118 -32 -5 -4 89 -165 96 -165 13 0
224 59 229 64 4 4 -72 145 -85 157 -4 3 -59 -8 -122 -24z"/>
<path d="M11160 6575 c-25 -7 -71 -20 -102 -29 l-57 -16 46 -76 c39 -62 50
-74 67 -70 159 41 226 62 226 71 -1 5 -20 37 -43 70 -48 67 -63 73 -137 50z"/>
<path d="M11825 6540 c-61 -16 -99 -32 -97 -39 1 -7 28 -47 59 -89 32 -42 58
-78 59 -80 2 -4 205 48 221 56 8 5 -9 35 -55 94 -37 48 -71 87 -77 87 -5 0
-55 -13 -110 -29z"/>
<path d="M10177 6540 c-38 -10 -71 -20 -73 -23 -3 -3 58 -128 81 -164 2 -4
160 39 167 46 10 9 -76 156 -92 158 -8 1 -46 -7 -83 -17z"/>
<path d="M10865 6495 c-44 -13 -99 -28 -123 -35 l-42 -11 40 -72 c21 -39 44
-73 51 -76 13 -4 259 61 259 69 0 12 -86 144 -95 146 -5 1 -46 -9 -90 -21z"/>
<path d="M11546 6464 c-65 -18 -122 -34 -127 -36 -7 -2 74 -136 106 -176 4 -5
259 60 268 68 8 7 -111 181 -123 179 -3 -1 -58 -16 -124 -35z"/>
<path d="M10545 6408 c-60 -17 -112 -32 -115 -35 -7 -7 74 -153 85 -153 17 1
217 59 223 65 6 6 -53 122 -72 141 -8 9 -39 4 -121 -18z"/>
<path d="M11230 6378 c-58 -17 -107 -32 -109 -33 -2 -2 20 -42 49 -90 38 -61
57 -84 69 -81 9 3 63 17 121 31 58 14 110 28 117 30 20 7 -98 174 -122 174
-11 -1 -67 -15 -125 -31z"/>
<path d="M10290 6338 c-41 -12 -76 -22 -78 -23 -3 -3 65 -144 73 -153 3 -4
167 39 175 45 7 6 -74 153 -85 152 -5 0 -44 -10 -85 -21z"/>
<path d="M11997 6330 c-60 -15 -111 -31 -114 -34 -3 -3 18 -38 48 -78 29 -40
54 -75 56 -77 2 -4 222 48 236 56 8 5 -35 67 -86 124 l-32 37 -108 -28z"/>
<path d="M10933 6297 c-61 -18 -114 -35 -118 -39 -7 -6 70 -154 86 -163 8 -5
266 59 276 68 9 10 -100 167 -116 166 -9 0 -66 -15 -128 -32z"/>
<path d="M11695 6254 c-71 -19 -131 -37 -134 -39 -2 -3 16 -34 40 -71 24 -37
47 -71 50 -77 7 -10 265 48 282 63 7 6 -97 162 -106 159 -1 0 -60 -16 -132
-35z"/>
<path d="M10645 6218 c-60 -17 -112 -32 -114 -34 -2 -2 74 -148 85 -163 4 -5
227 50 236 58 7 6 -82 172 -91 170 -3 0 -55 -14 -116 -31z"/>
<path d="M11367 6170 c-60 -15 -111 -31 -114 -34 -3 -3 16 -40 42 -81 33 -54
52 -75 64 -72 9 2 69 17 134 32 64 16 117 33 117 37 0 5 -21 40 -46 78 -34 51
-53 70 -68 69 -12 0 -70 -13 -129 -29z"/>
<path d="M10400 6149 c-36 -10 -71 -21 -78 -24 -9 -3 -1 -28 28 -86 24 -47 46
-79 53 -76 7 2 47 12 90 22 42 10 77 23 77 28 0 20 -82 157 -93 156 -7 -1 -41
-10 -77 -20z"/>
<path d="M11060 6092 c-74 -19 -136 -36 -138 -38 -3 -2 74 -143 83 -153 5 -4
278 60 287 68 7 6 -87 163 -94 160 -2 -1 -64 -18 -138 -37z"/>
<path d="M10755 6014 c-49 -13 -96 -27 -103 -29 -10 -4 -4 -23 23 -73 21 -37
41 -71 46 -76 6 -7 225 39 239 51 2 2 -14 37 -35 78 -46 86 -40 84 -170 49z"/>
<path d="M10498 5946 c-43 -11 -78 -24 -78 -28 0 -9 52 -113 67 -135 12 -17
189 29 185 48 -7 30 -75 139 -85 138 -7 -1 -47 -11 -89 -23z"/>
<path d="M10987 11653 c-15 -14 -4 -24 63 -58 76 -38 90 -42 90 -22 0 7 -31
29 -69 50 -74 40 -74 40 -84 30z"/>
<path d="M11232 11514 c3 -15 409 -233 436 -234 6 0 12 6 12 13 0 12 -418 237
-441 237 -6 0 -9 -7 -7 -16z"/>
<path d="M10770 10465 c0 -8 6 -15 13 -16 6 0 98 -11 202 -23 178 -22 224 -21
199 4 -9 9 -314 50 -378 50 -25 0 -36 -4 -36 -15z"/>
<path d="M11320 10406 c0 -19 25 -26 109 -29 41 -1 65 2 68 10 5 14 -15 20
-104 28 -63 6 -73 5 -73 -9z"/>
<path d="M11176 9325 c-126 -35 -234 -69 -239 -74 -8 -8 -8 -14 -1 -21 7 -7
87 10 255 57 191 53 244 72 247 86 2 11 -3 17 -15 16 -10 0 -121 -29 -247 -64z"/>
<path d="M13155 5145 c-420 -68 -646 -159 -736 -294 -54 -82 -31 -143 73 -193
139 -68 231 -83 458 -75 368 13 780 76 901 137 50 26 81 72 87 131 11 120
-106 228 -306 280 -103 28 -350 34 -477 14z m432 -31 c155 -32 269 -98 307
-178 33 -70 30 -72 -102 -80 -65 -3 -161 -13 -213 -21 -179 -29 -236 -43 -689
-171 -174 -49 -203 -51 -286 -24 -164 54 -212 107 -169 189 62 120 354 234
740 290 105 15 329 12 412 -5z"/>
</g>
</svg>
